<svg width="45" height="45" viewBox="0 0 45 45" fill="none" xmlns="http://www.w3.org/2000/svg">
<circle cx="22.5" cy="22.5" r="22.5" fill="#D3D0D0"/>
<path d="M34.0834 33.75V30.9167C34.0834 29.4138 33.4864 27.9724 32.4237 26.9097C31.361 25.847 29.9196 25.25 28.4167 25.25H17.0834C15.5805 25.25 14.1392 25.847 13.0765 26.9097C12.0138 27.9724 11.4167 29.4138 11.4167 30.9167V33.75" stroke="black" stroke-width="2.5" stroke-linecap="round" stroke-linejoin="round"/>
<path d="M22.7502 19.5833C25.8798 19.5833 28.4168 17.0463 28.4168 13.9167C28.4168 10.7871 25.8798 8.25 22.7502 8.25C19.6205 8.25 17.0835 10.7871 17.0835 13.9167C17.0835 17.0463 19.6205 19.5833 22.7502 19.5833Z" stroke="black" stroke-width="2.5" stroke-linecap="round" stroke-linejoin="round"/>
</svg>
