<svg width="29" height="32" viewBox="0 0 29 32" fill="none" xmlns="http://www.w3.org/2000/svg">
<path d="M4.93896 3.04395C11.076 0.3402 18.077 0.32178 24.0913 2.97363C24.2682 3.14581 24.329 3.22745 24.3628 3.3125L26.6772 12.125C26.6769 12.1343 26.6777 12.1434 26.6772 12.1523C26.6763 12.1692 26.6736 12.183 26.6724 12.1943L26.6118 12.252L26.5776 12.3154C26.5647 12.3214 26.5491 12.3298 26.5288 12.3379C26.4859 12.355 26.4319 12.3727 26.3638 12.3945C22.5157 13.2329 18.5295 13.5957 14.5298 13.5957C10.5165 13.5957 6.64134 13.232 2.63916 12.3838L2.53662 12.3613H2.52197C2.5208 12.3606 2.5193 12.3601 2.51807 12.3594C2.50889 12.3536 2.5017 12.3474 2.49561 12.3428L2.44775 12.252L2.38623 12.1943C2.38498 12.183 2.38327 12.1692 2.38232 12.1523C2.38175 12.1421 2.38169 12.1318 2.38135 12.1211L4.69678 3.18555C4.71095 3.15192 4.72264 3.13988 4.72705 3.13574C4.73413 3.12917 4.76136 3.10686 4.83447 3.08398L4.88721 3.06641L4.93896 3.04395ZM14.5298 2.61035C13.9264 2.61035 13.3382 2.80204 12.8921 3.2207C12.4403 3.64481 12.2144 4.2274 12.2144 4.84473V5.0791H11.8999C11.2965 5.0791 10.7083 5.27082 10.2622 5.68945C9.81037 6.11356 9.58447 6.69614 9.58447 7.31348C9.58449 7.93079 9.81039 8.51341 10.2622 8.9375C10.7083 9.35608 11.2965 9.54785 11.8999 9.54785H12.2144V9.78223C12.2144 10.3995 12.4403 10.9822 12.8921 11.4062C13.3382 11.8249 13.9264 12.0166 14.5298 12.0166C15.1332 12.0166 15.7214 11.8249 16.1675 11.4062C16.6193 10.9822 16.8442 10.3995 16.8442 9.78223V9.54785H17.1597C17.7631 9.54785 18.3513 9.35615 18.7974 8.9375C19.2492 8.51341 19.4751 7.93079 19.4751 7.31348C19.4751 6.69614 19.2492 6.11356 18.7974 5.68945C18.3513 5.27076 17.7631 5.0791 17.1597 5.0791H16.8442V4.84473C16.8442 4.2274 16.6193 3.64481 16.1675 3.2207C15.7214 2.802 15.1332 2.61037 14.5298 2.61035Z" stroke="black" stroke-width="2"/>
<path d="M1.35352 16.7817C1.44446 16.8014 1.53926 16.8153 1.63672 16.8227C5.88199 17.6904 10.2666 18.1879 14.5293 18.1879C18.7916 18.1879 23.176 17.6902 27.4209 16.8227C27.4983 16.8168 27.574 16.8073 27.6475 16.7934C28.0286 17.6523 28.146 18.9668 27.7666 20.4995C27.3082 21.9826 26.3177 23.0496 25.4775 23.4125C25.0177 23.5583 24.9732 23.5941 24.7871 23.5942H24.0811L23.8447 24.2592C22.3996 28.3286 18.8146 31.0004 14.5293 31.0004C10.2441 31.0003 6.65994 28.3285 5.21484 24.2592L4.97852 23.5942H4.27246C4.27991 23.5942 4.26501 23.5943 4.22461 23.5873C4.18656 23.5807 4.13838 23.5697 4.08301 23.5541C4.02609 23.5381 3.96933 23.5198 3.91699 23.5004L3.77637 23.4418C2.83587 23.0003 1.986 22.0072 1.50098 20.7182L1.40918 20.4565L1.40234 20.436L1.39453 20.4155L1.27441 20.0668C0.841657 18.6998 0.958255 17.5455 1.35352 16.7817Z" stroke="black" stroke-width="2"/>
</svg>
