<svg width="15" height="18" viewBox="0 0 15 18" fill="none" xmlns="http://www.w3.org/2000/svg">
<path d="M8.38063 4.31341C8.66845 3.9375 8.61069 3.38856 8.25154 3.08728C7.89251 2.78602 7.36818 2.84651 7.08046 3.22241L8.38063 4.31341ZM1.17863 12.3264L1.80964 12.8959C1.81615 12.888 1.82252 12.88 1.82875 12.8719L1.17863 12.3264ZM0.988675 12.8126L0.157144 12.7557L0.156411 12.7722L0.988675 12.8126ZM0.833153 16.3283L0.000889487 16.2879C-0.00102121 16.3312 0.000145204 16.3746 0.00439984 16.4177L0.833153 16.3283ZM1.70741 17.1273L1.73465 17.999C1.79021 17.9971 1.84544 17.9894 1.89954 17.9759L1.70741 17.1273ZM5.04002 16.3004L5.2322 17.1491L5.24508 17.1458L5.04002 16.3004ZM5.4677 16.0166L6.11045 16.5717L6.11767 16.5623L5.4677 16.0166ZM12.8273 7.80261C13.1152 7.42673 13.0575 6.8778 12.6986 6.57642C12.3397 6.27504 11.8152 6.3354 11.5274 6.71126L12.8273 7.80261ZM7.08391 3.22218C6.79608 3.59798 6.85362 4.14694 7.21266 4.44835C7.57158 4.74974 8.09591 4.68942 8.38385 4.31364L7.08391 3.22218ZM9.49794 1.46517L10.1479 2.01091C10.1588 1.99662 10.1693 1.98196 10.1795 1.96697L9.49794 1.46517ZM11.3075 1.09302L11.8405 0.422619C11.814 0.399499 11.7861 0.378135 11.7571 0.358631L11.3075 1.09302ZM13.7926 3.25851L14.3822 2.64231C14.3641 2.62334 14.3452 2.60527 14.3256 2.58811L13.7926 3.25851ZM13.7826 5.1635L13.1994 4.54055C13.1758 4.56479 13.1536 4.59047 13.1328 4.61746L13.7826 5.1635ZM11.5274 6.71126C11.2393 7.0869 11.297 7.63549 11.6558 7.93705C12.0146 8.23862 12.5393 8.17826 12.8273 7.80261L11.5274 6.71126ZM8.55781 3.63865C8.4896 3.16224 8.06547 2.8339 7.61046 2.9053C7.15534 2.97668 6.84174 3.42076 6.90995 3.89717L8.55781 3.63865ZM12.2896 8.12115C12.7455 8.05637 13.0648 7.61676 13.003 7.13947C12.941 6.66211 12.5212 6.32772 12.0652 6.39258L12.2896 8.12115ZM7.08046 3.22241L0.528519 11.7809L1.82875 12.8719L8.38063 4.31341L7.08046 3.22241ZM0.547626 11.7568C0.317276 12.0365 0.180106 12.3871 0.157144 12.7557L1.82006 12.8693C1.81945 12.8791 1.8158 12.8885 1.80964 12.8959L0.547626 11.7568ZM0.156411 12.7722L0.000889487 16.2879L1.66542 16.3686L1.82094 12.8529L0.156411 12.7722ZM0.00439984 16.4177C0.0951246 17.3387 0.850794 18.0293 1.73465 17.999L1.68017 16.2555C1.67661 16.2556 1.67374 16.2546 1.67374 16.2546C1.67215 16.254 1.67005 16.2528 1.66791 16.2508C1.66575 16.2489 1.66436 16.2469 1.66357 16.2454C1.66301 16.2442 1.66227 16.2425 1.66191 16.2387L0.00439984 16.4177ZM1.89954 17.9759L5.2322 17.1491L4.84784 15.4516L1.51527 16.2785L1.89954 17.9759ZM5.24508 17.1458C5.58446 17.0555 5.88761 16.8545 6.11045 16.5717L4.82495 15.4615C4.82762 15.4583 4.83106 15.4559 4.83495 15.4549L5.24508 17.1458ZM6.11767 16.5623L12.8273 7.80261L11.5274 6.71126L4.81773 15.4709L6.11767 16.5623ZM8.38385 4.31364L10.1479 2.01091L8.84797 0.919451L7.08391 3.22218L8.38385 4.31364ZM10.1795 1.96697C10.3334 1.73772 10.6326 1.67619 10.858 1.82741L11.7571 0.358631C10.7803 -0.296669 9.48383 -0.0300412 8.81642 0.963389L10.1795 1.96697ZM10.7746 1.76341L13.2596 3.92891L14.3256 2.58811L11.8405 0.422619L10.7746 1.76341ZM13.2029 3.87472C13.2872 3.96322 13.3343 4.08335 13.3337 4.2084L15 4.21798C15.0031 3.62752 14.7807 3.06023 14.3822 2.64231L13.2029 3.87472ZM13.3337 4.2084C13.3331 4.33344 13.2847 4.45302 13.1994 4.54055L14.3658 5.78645C14.7686 5.37314 14.9969 4.80845 15 4.21798L13.3337 4.2084ZM13.1328 4.61746L11.5274 6.71126L12.8273 7.80261L14.4323 5.70955L13.1328 4.61746ZM6.90995 3.89717C7.29797 6.60846 9.69467 8.49029 12.2896 8.12115L12.0652 6.39258C10.3734 6.63324 8.81087 5.40632 8.55781 3.63865L6.90995 3.89717Z" fill="black"/>
</svg>
