<svg width="41" height="37" viewBox="0 0 41 37" fill="none" xmlns="http://www.w3.org/2000/svg">
<g clip-path="url(#clip0_1_12)" filter="url(#filter0_d_1_12)">
<path d="M10.864 1.566C9.478 2.378 7.234 3.538 5.98 4.118L3.67 5.162L5.98 5.974C9.016 7.134 13.768 7.308 16.078 6.38C17.86 5.626 18.586 4.06 17.134 4.06C16.738 4.06 16.606 3.654 16.804 3.132C17.332 1.856 16.078 1.43051e-06 14.626 1.43051e-06C13.966 1.43051e-06 12.25 0.696002 10.864 1.566Z" fill="black"/>
<path d="M18.784 0.811998C18.124 2.32 19.048 3.596 20.632 3.364C22.81 3.132 22.81 0.347998 20.632 0.115998C19.774 -1.90735e-06 18.982 0.289998 18.784 0.811998Z" fill="#23D09C"/>
<path d="M24.46 1.102C24.13 1.74 23.998 2.668 24.196 3.132C24.394 3.654 24.262 4.06 23.866 4.06C22.414 4.06 23.14 5.626 24.988 6.38C27.166 7.308 31.918 7.134 34.888 6.032C37.066 5.278 37.264 4.06 35.284 4.06C34.756 4.06 32.908 3.132 31.258 2.03C27.892 -0.232001 25.516 -0.580001 24.46 1.102Z" fill="black"/>
<path d="M19.18 5.974C19.18 7.018 18.85 7.308 17.728 7.308C16.54 7.25 16.144 7.598 16.012 8.758C15.814 10.092 16.276 10.44 18.784 11.542C21.226 12.528 21.82 13.05 21.82 14.21C21.82 15.66 23.338 16.24 24.13 15.022C25.186 13.572 23.734 11.716 20.368 10.266L16.87 8.816L20.302 8.874C22.81 8.874 23.602 9.106 23.338 9.686C23.14 10.15 23.47 10.44 24.13 10.44C24.922 10.44 25.186 10.034 24.988 8.816C24.856 7.598 24.46 7.25 23.338 7.308C22.15 7.308 21.82 7.018 21.82 5.974C21.82 5.046 21.424 4.64 20.5 4.64C19.576 4.64 19.18 5.046 19.18 5.974Z" fill="#23D09C"/>
<path d="M16.87 13.34C16.276 14.152 18.124 16.53 20.17 17.748C21.094 18.27 21.82 19.024 21.82 19.43C21.82 19.836 22.282 20.3 22.81 20.532C23.536 20.764 23.8 20.474 23.8 19.43C23.8 18.502 23.008 17.516 21.49 16.472C20.236 15.66 19.18 14.442 19.18 13.862C19.18 12.702 17.596 12.354 16.87 13.34Z" fill="#23D09C"/>
<path d="M17.596 18.386C16.738 19.14 17.266 20.126 19.774 22.504C21.226 23.838 22.546 24.94 22.744 24.94C23.866 24.94 22.876 22.388 21.358 21.054C20.302 20.242 19.576 19.372 19.642 19.14C19.84 18.56 18.124 17.922 17.596 18.386Z" fill="#23D09C"/>
<path d="M17.86 23.49C17.86 23.954 18.586 24.94 19.51 25.636C20.434 26.332 21.16 27.26 21.16 27.666C21.16 28.072 21.49 28.42 21.82 28.42C23.008 28.42 22.48 26.158 21.16 25.52C20.434 25.172 19.84 24.534 19.84 24.128C19.84 23.664 19.378 23.2 18.85 22.968C18.256 22.794 17.86 22.968 17.86 23.49Z" fill="#23D09C"/>
<path d="M17.992 27.086C18.124 27.666 18.718 28.188 19.378 28.304C20.434 28.478 20.5 28.362 19.708 27.318C18.652 25.868 17.662 25.752 17.992 27.086Z" fill="#23D09C"/>
</g>
<defs>
<filter id="filter0_d_1_12" x="0" y="0" width="41" height="37" filterUnits="userSpaceOnUse" color-interpolation-filters="sRGB">
<feFlood flood-opacity="0" result="BackgroundImageFix"/>
<feColorMatrix in="SourceAlpha" type="matrix" values="0 0 0 0 0 0 0 0 0 0 0 0 0 0 0 0 0 0 127 0" result="hardAlpha"/>
<feOffset dy="4"/>
<feGaussianBlur stdDeviation="2"/>
<feComposite in2="hardAlpha" operator="out"/>
<feColorMatrix type="matrix" values="0 0 0 0 0 0 0 0 0 0 0 0 0 0 0 0 0 0 0.25 0"/>
<feBlend mode="normal" in2="BackgroundImageFix" result="effect1_dropShadow_1_12"/>
<feBlend mode="normal" in="SourceGraphic" in2="effect1_dropShadow_1_12" result="shape"/>
</filter>
<clipPath id="clip0_1_12">
<rect width="33" height="29" fill="white" transform="translate(4)"/>
</clipPath>
</defs>
</svg>
