<svg width="34" height="34" viewBox="0 0 34 34" fill="none" xmlns="http://www.w3.org/2000/svg">
<path d="M24.0834 29.75V26.9167C24.0834 25.4138 23.4864 23.9724 22.4237 22.9097C21.361 21.847 19.9196 21.25 18.4167 21.25H7.08342C5.58052 21.25 4.13918 21.847 3.07648 22.9097C2.01377 23.9724 1.41675 25.4138 1.41675 26.9167V29.75" stroke="black" stroke-width="2.4" stroke-linecap="round" stroke-linejoin="round"/>
<path d="M12.7502 15.5833C15.8798 15.5833 18.4168 13.0463 18.4168 9.91667C18.4168 6.78705 15.8798 4.25 12.7502 4.25C9.62055 4.25 7.0835 6.78705 7.0835 9.91667C7.0835 13.0463 9.62055 15.5833 12.7502 15.5833Z" stroke="black" stroke-width="2.4" stroke-linecap="round" stroke-linejoin="round"/>
<path d="M24.0835 15.5833H32.5835" stroke="black" stroke-width="2.4" stroke-linecap="round" stroke-linejoin="round"/>
<path d="M28.3335 11.3333V19.8333" stroke="black" stroke-width="2.4" stroke-linecap="round" stroke-linejoin="round"/>
</svg>
