<svg width="32" height="32" viewBox="0 0 32 32" fill="none" xmlns="http://www.w3.org/2000/svg">
<g clip-path="url(#clip0_22_629)">
<path d="M23 26C22.7348 26 22.4804 26.1054 22.2929 26.2929C22.1054 26.4804 22 26.7348 22 27V30H2V6H6V7C6 7.26522 6.10536 7.51957 6.29289 7.70711C6.48043 7.89464 6.73478 8 7 8H17C17.2652 8 17.5196 7.89464 17.7071 7.70711C17.8946 7.51957 18 7.26522 18 7V6H22V7C22 7.26522 22.1054 7.51957 22.2929 7.70711C22.4804 7.89464 22.7348 8 23 8C23.2652 8 23.5196 7.89464 23.7071 7.70711C23.8946 7.51957 24 7.26522 24 7V5C24 4.73478 23.8946 4.48043 23.7071 4.29289C23.5196 4.10536 23.2652 4 23 4H18V3C18 2.20435 17.6839 1.44129 17.1213 0.878681C16.5587 0.316072 15.7956 0 15 0H9C8.20435 0 7.44129 0.316072 6.87868 0.878681C6.31607 1.44129 6 2.20435 6 3V4H1C0.734784 4 0.480429 4.10536 0.292892 4.29289C0.105356 4.48043 0 4.73478 0 5V31C0 31.2652 0.105356 31.5196 0.292892 31.7071C0.480429 31.8946 0.734784 32 1 32H23C23.2652 32 23.5196 31.8946 23.7071 31.7071C23.8946 31.5196 24 31.2652 24 31V27C24 26.7348 23.8946 26.4804 23.7071 26.2929C23.5196 26.1054 23.2652 26 23 26ZM8 3C8 2.73478 8.10536 2.48043 8.29289 2.29289C8.48043 2.10536 8.73478 2 9 2H15C15.2652 2 15.5196 2.10536 15.7071 2.29289C15.8946 2.48043 16 2.73478 16 3V6H8V3ZM31.708 12.292L27.708 8.292C27.6151 8.19887 27.5048 8.12499 27.3833 8.07458C27.2618 8.02416 27.1315 7.99821 27 7.99821C26.8685 7.99821 26.7382 8.02416 26.6167 8.07458C26.4952 8.12499 26.3849 8.19887 26.292 8.292L14.292 20.292C14.1992 20.385 14.1256 20.4955 14.0755 20.6169C14.0254 20.7384 13.9998 20.8686 14 21V25C14 25.2652 14.1054 25.5196 14.2929 25.7071C14.4804 25.8946 14.7348 26 15 26H19C19.1314 26.0002 19.2616 25.9746 19.3831 25.9245C19.5045 25.8744 19.615 25.8008 19.708 25.708L31.708 13.708C31.8011 13.6151 31.875 13.5048 31.9254 13.3833C31.9758 13.2618 32.0018 13.1315 32.0018 13C32.0018 12.8685 31.9758 12.7382 31.9254 12.6167C31.875 12.4952 31.8011 12.3849 31.708 12.292ZM16 24V21.414L27 10.414L29.586 13L18.586 24H16ZM12 25C12 25.2652 11.8946 25.5196 11.7071 25.7071C11.5196 25.8946 11.2652 26 11 26H7C6.73478 26 6.48043 25.8946 6.29289 25.7071C6.10536 25.5196 6 25.2652 6 25C6 24.7348 6.10536 24.4804 6.29289 24.2929C6.48043 24.1054 6.73478 24 7 24H11C11.2652 24 11.5196 24.1054 11.7071 24.2929C11.8946 24.4804 12 24.7348 12 25ZM12 19C12 19.2652 11.8946 19.5196 11.7071 19.7071C11.5196 19.8946 11.2652 20 11 20H7C6.73478 20 6.48043 19.8946 6.29289 19.7071C6.10536 19.5196 6 19.2652 6 19C6 18.7348 6.10536 18.4804 6.29289 18.2929C6.48043 18.1054 6.73478 18 7 18H11C11.2652 18 11.5196 18.1054 11.7071 18.2929C11.8946 18.4804 12 18.7348 12 19ZM17 14H7C6.73478 14 6.48043 13.8946 6.29289 13.7071C6.10536 13.5196 6 13.2652 6 13C6 12.7348 6.10536 12.4804 6.29289 12.2929C6.48043 12.1054 6.73478 12 7 12H17C17.2652 12 17.5196 12.1054 17.7071 12.2929C17.8946 12.4804 18 12.7348 18 13C18 13.2652 17.8946 13.5196 17.7071 13.7071C17.5196 13.8946 17.2652 14 17 14Z" fill="black"/>
</g>
<defs>
<clipPath id="clip0_22_629">
<rect width="32" height="32" fill="white"/>
</clipPath>
</defs>
</svg>
