<svg width="15" height="19" viewBox="0 0 15 19" fill="none" xmlns="http://www.w3.org/2000/svg">
<path d="M4.33333 0V2.47396H0V3.95833H15V2.47396H10.6667V0H4.33333ZM5.33333 0.890625H9.66667V2.47396H5.33333V0.890625ZM0.944333 4.84896L2.61689 19H12.3832L14.0557 4.84896H0.944333ZM4.40756 5.51099L4.44311 5.95531L5.332 17.0386L5.36772 17.4828L4.37017 17.5463L4.33461 17.1019L3.44572 6.0186L3.41 5.57447L4.40756 5.51099ZM10.5924 5.51099L11.5899 5.57452L11.5542 6.0187L10.6653 17.102L10.6298 17.5464L9.63222 17.4828L9.66794 17.0386L10.5568 5.95531L10.5924 5.51099H10.5924ZM7 5.54167H8V17.5156H7V5.54167Z" fill="black"/>
</svg>
